<?xml version="1.0" standalone="no"?>
<!DOCTYPE svg PUBLIC "-//W3C//DTD SVG 20010904//EN"
 "http://www.w3.org/TR/2001/REC-SVG-20010904/DTD/svg10.dtd">
<svg version="1.0" xmlns="http://www.w3.org/2000/svg"
 width="40.000000pt" height="40.000000pt" viewBox="0 0 40.000000 40.000000"
 preserveAspectRatio="xMidYMid meet">
<metadata>
Created by potrace 1.16, written by Peter Selinger 2001-2019
</metadata>
<g transform="translate(0.000000,40.000000) scale(0.006250,-0.006250)"
fill="#000000" stroke="none">
<path d="M1455 6230 c-160 -32 -278 -87 -374 -176 -122 -113 -184 -210 -233
-365 l-23 -74 0 -2410 c0 -2325 1 -2412 19 -2480 81 -304 317 -513 636 -564
89 -15 3370 -15 3460 -1 299 48 538 251 623 530 16 51 17 237 15 2532 -2 1965
-6 2480 -15 2490 -7 6 -13 20 -13 29 0 40 -82 177 -149 250 -125 136 -245 201
-441 239 -56 11 -3449 11 -3505 0z m3442 -341 c95 -13 159 -45 231 -116 58
-58 96 -130 112 -213 7 -34 10 -852 10 -2364 0 -2540 3 -2398 -61 -2497 -40
-63 -119 -133 -176 -159 -25 -11 -73 -24 -107 -30 -88 -14 -3323 -14 -3400 1
-88 16 -158 54 -218 117 -62 65 -94 125 -108 203 -7 37 -9 847 -8 2405 l3
2349 31 65 c63 131 176 220 305 238 95 14 3287 15 3386 1z"/>
<path d="M3150 4983 c-26 -10 -61 -47 -81 -85 -18 -36 -19 -70 -19 -793 l0
-755 -761 0 c-751 0 -762 0 -798 -21 -50 -28 -73 -64 -79 -119 -6 -60 15 -101
70 -138 l42 -27 763 -3 763 -2 0 -751 c0 -820 -3 -776 58 -841 73 -79 190 -47
236 64 14 33 16 131 16 782 l0 746 758 2 757 3 41 22 c50 27 75 63 82 118 5
52 -15 94 -65 132 l-36 28 -768 3 -769 2 -2 763 c-3 748 -3 763 -24 797 -38
65 -118 97 -184 73z"/>
</g>
</svg>
