<?xml version="1.0" standalone="no"?>
<!DOCTYPE svg PUBLIC "-//W3C//DTD SVG 20010904//EN"
 "http://www.w3.org/TR/2001/REC-SVG-20010904/DTD/svg10.dtd">
<svg version="1.0" xmlns="http://www.w3.org/2000/svg"
 width="40.000000pt" height="40.000000pt" viewBox="0 0 40.000000 40.000000"
 preserveAspectRatio="xMidYMid meet">
<metadata>
Created by potrace 1.16, written by Peter Selinger 2001-2019
</metadata>
<g transform="translate(0.000000,40.000000) scale(0.006154,-0.006154)"
fill="#000000" stroke="none">
<path d="M5743 6029 c-23 -4 -59 -19 -80 -32 -21 -14 -571 -559 -1223 -1211
-652 -652 -1187 -1186 -1190 -1186 -3 0 -538 534 -1190 1188 -945 948 -1195
1193 -1232 1210 -89 41 -199 25 -272 -39 -62 -55 -90 -124 -84 -209 3 -36 13
-81 23 -100 10 -18 552 -569 1206 -1224 654 -654 1188 -1191 1186 -1192 -1 -2
-534 -535 -1183 -1186 -843 -843 -1188 -1196 -1205 -1228 -33 -65 -32 -158 4
-226 34 -66 83 -107 158 -129 51 -16 66 -17 113 -6 30 7 72 25 93 40 21 16
564 556 1208 1200 643 644 1172 1171 1176 1171 3 0 542 -537 1198 -1194 690
-690 1207 -1200 1227 -1210 24 -11 61 -16 117 -16 74 0 88 3 129 29 53 34 91
80 108 134 16 50 9 152 -13 197 -10 20 -518 536 -1212 1230 l-1195 1195 1199
1200 c659 660 1207 1216 1217 1235 13 25 19 57 19 110 0 64 -4 82 -27 121 -60
102 -163 150 -275 128z"/>
</g>
</svg>
