<?xml version="1.0" standalone="no"?>
<!DOCTYPE svg PUBLIC "-//W3C//DTD SVG 20010904//EN"
 "http://www.w3.org/TR/2001/REC-SVG-20010904/DTD/svg10.dtd">
<svg version="1.0" xmlns="http://www.w3.org/2000/svg"
 width="40.000000pt" height="40.000000pt" viewBox="0 0 40.000000 40.000000"
 preserveAspectRatio="xMidYMid meet">
<metadata>
Created by potrace 1.16, written by Peter Selinger 2001-2019
</metadata>
<g transform="translate(0.000000,40.000000) scale(0.006154,-0.006154)"
fill="#000000" stroke="none">
<path d="M4053 4919 c-72 -36 -96 -136 -47 -202 37 -51 77 -57 347 -57 l247 0
0 -1415 0 -1415 -250 0 c-270 0 -293 -4 -339 -53 -31 -35 -40 -111 -17 -155 9
-17 31 -40 49 -49 30 -17 79 -18 682 -18 613 0 652 1 680 18 66 40 84 126 41
190 -13 19 -22 38 -20 41 2 3 1 4 -2 1 -4 -2 -22 2 -41 10 -28 12 -88 15 -279
15 l-244 0 0 1415 0 1414 253 3 c279 3 293 6 334 67 45 66 18 156 -57 193 -32
17 -85 18 -665 18 -616 0 -631 0 -672 -21z"/>
<path d="M623 4350 c-115 -32 -192 -77 -278 -164 -91 -92 -133 -166 -165 -291
-19 -75 -20 -112 -20 -646 0 -630 2 -649 66 -785 55 -116 173 -231 294 -287
121 -56 -52 -51 2057 -57 1604 -4 1934 -3 1938 8 3 8 5 58 5 112 0 69 -4 101
-13 109 -10 8 -544 11 -1918 13 l-1904 3 -56 28 c-75 37 -130 86 -168 146 -61
100 -61 101 -61 704 0 479 2 556 16 605 29 98 78 165 159 217 108 70 -45 65
2052 65 l1894 0 -3 118 -3 117 -1915 1 c-1795 2 -1919 1 -1977 -16z"/>
<path d="M4937 4363 c-4 -3 -7 -57 -7 -119 l0 -113 443 -3 442 -3 60 -28 c99
-46 175 -131 209 -233 15 -45 16 -110 14 -640 l-3 -589 -29 -56 c-38 -77 -106
-143 -185 -182 l-66 -32 -440 -5 -440 -5 0 -118 0 -118 427 1 c235 0 449 5
475 10 202 39 380 181 455 365 48 115 48 119 48 749 0 560 -1 601 -19 666 -60
216 -231 386 -445 441 -64 17 -115 19 -502 19 -237 0 -434 -3 -437 -7z"/>
</g>
</svg>
