<?xml version="1.0" standalone="no"?>
<!DOCTYPE svg PUBLIC "-//W3C//DTD SVG 20010904//EN"
 "http://www.w3.org/TR/2001/REC-SVG-20010904/DTD/svg10.dtd">
<svg version="1.0" xmlns="http://www.w3.org/2000/svg"
 width="40.000000pt" height="40.000000pt" viewBox="0 0 40.000000 40.000000"
 preserveAspectRatio="xMidYMid meet">
<metadata>
Created by potrace 1.16, written by Peter Selinger 2001-2019
</metadata>
<g transform="translate(0.000000,40.000000) scale(0.006154,-0.006154)"
fill="#000000" stroke="none">
<path d="M3935 5949 c-38 -5 -81 -13 -95 -18 -14 -5 -60 -17 -103 -26 -43 -9
-90 -23 -105 -31 -15 -7 -33 -14 -41 -14 -71 0 -429 -186 -548 -285 -10 -8
-36 -28 -58 -45 -93 -73 -264 -251 -330 -344 -76 -109 -113 -163 -126 -188
-54 -102 -101 -202 -119 -253 -12 -33 -28 -73 -35 -90 -7 -16 -18 -55 -25 -85
-7 -30 -16 -59 -20 -65 -7 -9 -22 -93 -51 -290 -13 -92 -8 -347 10 -470 18
-121 66 -321 90 -370 5 -11 22 -53 37 -94 15 -40 44 -106 65 -145 21 -39 48
-89 60 -111 24 -44 55 -90 81 -121 18 -20 16 -22 -99 -119 l-117 -98 -36 21
c-20 11 -65 26 -101 32 -35 7 -72 16 -81 21 -23 12 -103 12 -142 0 -17 -5 -62
-16 -101 -25 -38 -9 -72 -20 -75 -24 -3 -4 -25 -17 -51 -30 -35 -18 -328 -253
-402 -323 -8 -8 -32 -27 -52 -44 -36 -29 -234 -194 -285 -239 -13 -11 -52 -43
-86 -71 -33 -27 -127 -106 -209 -175 -81 -69 -171 -143 -199 -166 -164 -131
-246 -295 -246 -490 0 -79 5 -115 24 -170 67 -199 209 -340 401 -400 44 -14
90 -19 175 -19 100 0 124 4 185 27 103 38 135 59 295 193 80 66 154 128 165
137 11 9 70 58 131 110 61 51 130 109 154 128 43 34 120 100 130 110 3 3 46
39 95 80 111 92 96 79 296 249 205 173 256 239 295 378 34 123 35 206 4 328
-9 38 -8 41 23 70 18 17 52 46 77 65 24 19 51 42 60 51 22 21 63 49 72 49 4 0
27 -17 51 -37 74 -63 82 -69 168 -125 128 -84 327 -182 419 -209 25 -7 50 -16
55 -20 19 -14 251 -67 347 -79 125 -16 504 -7 603 13 118 25 238 57 272 72 17
8 36 15 42 15 32 0 315 142 409 204 98 66 86 57 187 144 193 166 356 368 463
574 52 100 125 281 137 338 4 19 11 40 16 45 9 12 44 184 61 300 12 86 4 488
-11 530 -5 17 -18 71 -27 120 -9 50 -19 95 -23 100 -4 6 -16 42 -26 80 -10 39
-26 86 -37 105 -10 19 -18 39 -18 44 0 12 -71 160 -80 166 -4 3 -11 15 -15 28
-7 24 -143 230 -175 267 -132 149 -273 287 -330 324 -14 8 -27 18 -30 22 -3 3
-45 33 -95 66 -136 91 -287 165 -410 203 -38 12 -77 25 -86 30 -9 5 -54 16
-100 25 -46 10 -93 21 -104 26 -62 27 -484 38 -650 18z m430 -413 c100 -5 193
-20 230 -36 11 -5 47 -16 80 -25 33 -9 74 -22 90 -30 17 -7 69 -31 117 -53
342 -158 630 -475 764 -842 47 -128 63 -198 83 -375 17 -143 17 -157 0 -305
-9 -85 -23 -179 -29 -209 -25 -113 -105 -309 -165 -406 -139 -224 -274 -368
-473 -502 -78 -52 -223 -131 -269 -146 -10 -4 -36 -13 -58 -22 -92 -35 -293
-78 -405 -85 -352 -22 -675 62 -953 248 -97 64 -201 147 -242 194 -98 109
-156 180 -190 232 -53 81 -139 252 -160 317 -10 30 -21 59 -26 64 -4 6 -22 80
-39 164 -27 136 -31 174 -31 318 0 90 3 168 6 172 3 5 16 67 30 137 14 70 30
133 34 138 5 6 16 34 25 63 10 29 31 80 47 113 16 33 29 65 29 70 0 6 5 10 10
10 6 0 10 6 10 13 0 6 25 50 55 96 149 230 360 420 590 530 135 65 168 79 230
96 33 9 69 20 80 26 31 14 202 39 275 40 36 0 74 4 85 8 11 5 31 5 45 0 14 -4
70 -10 125 -13z m-2165 -3215 c87 -46 120 -156 71 -235 -13 -21 -78 -83 -145
-139 -67 -55 -130 -108 -141 -118 -77 -69 -785 -662 -902 -756 -82 -66 -127
-81 -191 -64 -60 16 -106 60 -126 122 -16 46 -15 50 7 101 16 36 42 69 81 103
32 28 68 59 80 70 13 11 43 36 67 55 24 19 73 60 109 91 36 30 151 127 255
214 105 87 195 164 202 169 6 6 29 25 50 43 21 17 115 96 208 175 94 79 186
153 205 166 45 28 121 29 170 3z"/>
</g>
</svg>
