<?xml version="1.0" standalone="no"?>
<!DOCTYPE svg PUBLIC "-//W3C//DTD SVG 20010904//EN"
 "http://www.w3.org/TR/2001/REC-SVG-20010904/DTD/svg10.dtd">
<svg version="1.0" xmlns="http://www.w3.org/2000/svg"
 width="100.000000pt" height="100.000000pt" viewBox="0 0 100.000000 100.000000"
 preserveAspectRatio="xMidYMid meet">
<metadata>
Created by potrace 1.16, written by Peter Selinger 2001-2019
</metadata>
<g transform="translate(0.000000,100.000000) scale(0.015385,-0.015385)"
fill="#000000" stroke="none">
<path d="M1290 6331 c-8 -5 -40 -14 -70 -21 -30 -7 -64 -18 -75 -24 -11 -7
-46 -23 -77 -35 -32 -13 -58 -27 -58 -32 0 -5 -5 -9 -11 -9 -16 0 -117 -74
-175 -130 -55 -51 -164 -189 -164 -208 0 -5 -4 -12 -9 -14 -15 -5 -72 -137
-90 -209 -10 -38 -20 -72 -24 -76 -11 -10 -8 -4641 2 -4661 5 -9 17 -45 26
-80 9 -35 28 -86 42 -115 25 -51 82 -147 93 -157 3 -3 23 -29 44 -58 38 -53
154 -160 198 -183 13 -7 25 -15 28 -19 12 -18 179 -92 239 -107 36 -9 70 -20
75 -24 6 -5 818 -9 1816 -9 l1806 0 54 26 c71 34 141 102 176 172 l29 57 3
2125 c2 1609 -1 2132 -9 2155 -17 42 -48 75 -86 91 -27 12 -323 14 -1790 14
-1250 0 -1774 3 -1817 11 -34 6 -83 15 -111 20 -64 12 -160 62 -228 119 -225
187 -255 531 -66 767 79 100 167 157 307 200 53 16 189 18 2114 20 l2058 3 2
-2254 3 -2254 31 -38 c49 -61 78 -77 144 -82 32 -2 75 -1 95 2 38 7 105 59
105 81 0 7 6 15 13 17 9 4 13 495 15 2402 l2 2397 -26 44 c-14 24 -41 53 -60
64 l-35 21 -2262 0 c-1244 0 -2269 -4 -2277 -9z m-270 -1821 c37 -23 131 -63
200 -83 l75 -22 1738 -3 1737 -2 0 -1920 0 -1920 -1628 0 c-1068 0 -1657 4
-1712 10 -123 16 -232 70 -326 164 -73 73 -106 126 -146 237 l-23 64 -3 1763
-2 1763 37 -21 c21 -11 45 -25 53 -30z"/>
</g>
</svg>
